# xmcd
#
# Track frame offsets:
#	150
#	15301
#	29575
#	42972
#	63594
#	80470
#	94717
#	112149
#	135530
#	154159
#	177497
#	193112
#
# Disc length: 2795 seconds
# Revision: 0
# Processed by: cddbd v1.5.2PL0 Copyright (c) Steve Scherf et al.
# Submitted via: dBpowerAMP V12.0
#
DISCID=a00ae90c
DTITLE=Guy Bélanger - Traces and Scars
DYEAR=2017
DGENRE=Blues
TTITLE0=My Dearest Friend
TTITLE1=Better Days
TTITLE2=Fat Boy
TTITLE3=Les Mauvaises Herbes
TTITLE4=Little Heart
TTITLE5=See The Light
TTITLE6=Traces and Scars
TTITLE7=Common Ground
TTITLE8=Kalaw
TTITLE9=Who's Left Standing
TTITLE10=Nitassinan
TTITLE11=Hot Time
EXTD=
EXTT0=
EXTT1=
EXTT2=
EXTT3=
EXTT4=
EXTT5=
EXTT6=
EXTT7=
EXTT8=
EXTT9=
EXTT10=
EXTT11=
PLAYORDER=
